#!OML:ASF H:\Punching\Project 1\Capture day 1\Session 1\female.ASF
:FULLY-SPECIFIED
:DEGREES
3761
root 0.410535 15.7524 6.29497 10.6498 158.496 2.2651
lowerback -6.78959 0.673937 5.70672
upperback -5.73763 1.09137 0.992626
thorax -2.07805 0.576297 -2.12467
lowerneck -9.8811 3.09661 14.6649
upperneck 38.5485 8.2668 -6.57843
head 16.344 6.30308 -3.68303
rclavicle 5.2007e-014 -6.36111e-015
rhumerus -35.0095 7.24737 -85.0625
rradius 44.8462
rwrist -3.02418
rhand -12.1775 -4.5398
rfingers 7.12502
rthumb 13.886 -34.0562
lclavicle 5.2007e-014 -6.36111e-015
lhumerus -46.1553 11.7702 71.5402
lradius 32.1703
lwrist -18.1129
lhand -3.48838 14.0578
lfingers 7.12502
lthumb 22.2452 42.7976
rfemur -11.0133 9.04039 28.6799
rtibia 19.1328
rfoot -16.5959 -6.97869
rtoes 0.255908
lfemur -37.1746 -13.7257 -4.55159
ltibia 40.3183
lfoot -8.97221 10.6743
ltoes -3.93538
3762
root 0.408194 15.7545 6.18389 10.6882 157.371 2.29944
lowerback -6.79844 0.759032 5.70354
upperback -5.71604 1.19451 0.949562
thorax -2.04129 0.625007 -2.16157
lowerneck -9.76363 3.24679 14.8416
upperneck 38.4743 8.47107 -6.67733
head 16.3286 6.38719 -3.72693
rclavicle 3.3694e-014 3.18055e-014
rhumerus -34.9914 7.50309 -85.297
rradius 44.9562
rwrist -3.01828
rhand -12.1429 -4.45927
rfingers 7.12502
rthumb 13.9193 -33.9734
lclavicle 3.3694e-014 3.18055e-014
lhumerus -46.3273 11.8742 71.2387
lradius 32.0539
lwrist -18.2131
lhand -3.35539 14.0277
lfingers 7.12502
lthumb 22.3729 42.7522
rfemur -10.4566 9.5357 28.4937
rtibia 18.7304
rfoot -16.4003 -6.58255
rtoes 0.599523
lfemur -37.2708 -14.6815 -3.32422
ltibia 38.4054
lfoot -7.94516 9.92329
ltoes -3.52323
3763
root 0.406395 15.7555 6.07267 10.7207 156.26 2.32855
lowerback -6.80437 0.829618 5.6702
upperback -5.69162 1.27984 0.918047
thorax -2.00493 0.665967 -2.17055
lowerneck -9.65743 3.40125 15.0176
upperneck 38.4026 8.68126 -6.78088
head 16.3196 6.47258 -3.77144
rclavicle 6.07536e-014 3.97569e-016
rhumerus -34.9898 7.75615 -85.5054
rradius 45.0418
rwrist -3.01195
rhand -12.1069 -4.38021
rfingers 7.12502
rthumb 13.954 -33.8919
lclavicle 6.07536e-014 3.97569e-016
lhumerus -46.4858 11.9725 70.9717
lradius 31.9367
lwrist -18.3144
lhand -3.22342 13.9986
lfingers 7.12502
lthumb 22.4995 42.7078
rfemur -9.90535 10.0537 28.2968
rtibia 18.3413
rfoot -16.2327 -6.20542
rtoes 0.916576
lfemur -37.3417 -15.5502 -2.13328
ltibia 36.5505
lfoot -6.7653 8.95107
ltoes -3.1802
3764
root 0.404947 15.7558 5.96145 10.7562 155.169 2.36553
lowerback -6.8096 0.890094 5.62863
upperback -5.66677 1.3525 0.893814
thorax -1.96977 0.701054 -2.16799
lowerneck -9.55495 3.55542 15.1915
upperneck 38.3295 8.8875 -6.87907
head 16.3105 6.55618 -3.8137
rclavicle -6.90777e-015 2.66371e-014
rhumerus -35.0098 7.99068 -85.692
rradius 45.1042
rwrist -3.01079
rhand -12.0965 -4.33178
rfingers 7.12502
rthumb 13.964 -33.8428
lclavicle -6.90777e-015 2.66371e-014
lhumerus -46.6233 12.0499 70.7371
lradius 31.8123
lwrist -18.4242
lhand -3.1077 13.9594
lfingers 7.12502
lthumb 22.6106 42.6551
rfemur -9.35879 10.5924 28.0995
rtibia 17.9568
rfoot -16.1083 -5.84169
rtoes 1.18451
lfemur -37.3978 -16.2962 -0.991677
ltibia 34.7678
lfoot -5.46394 7.70436
ltoes -3.00412
3765
root 0.403753 15.7556 5.85026 10.7986 154.099 2.41669
lowerback -6.81486 0.942736 5.58843
upperback -5.64278 1.4153 0.877025
thorax -1.93652 0.731442 -2.159
lowerneck -9.45507 3.70789 15.3654
upperneck 38.2542 9.08796 -6.97358
head 16.3008 6.63744 -3.85516
rclavicle 1.13804e-014 -2.78299e-015
rhumerus -35.0499 8.19809 -85.8528
rradius 45.1343
rwrist -3.01128
rhand -12.1112 -4.30277
rfingers 7.12502
rthumb 13.9498 -33.8148
lclavicle 1.13804e-014 -2.78299e-015
lhumerus -46.7461 12.0974 70.5398
lradius 31.6893
lwrist -18.5439
lhand -3.02045 13.909
lfingers 7.12502
lthumb 22.6943 42.5945
rfemur -8.81255 11.1468 27.9054
rtibia 17.5663
rfoot -16.0324 -5.48834
rtoes 1.37028
lfemur -37.4383 -16.9095 0.0895844
ltibia 33.0665
lfoot -4.11033 6.15701
ltoes -2.99923
3766
root 0.402601 15.7552 5.73898 10.8526 153.054 2.48644
lowerback -6.81932 0.984833 5.55216
upperback -5.62108 1.46488 0.87106
thorax -1.90745 0.755447 -2.14173
lowerneck -9.36382 3.86186 15.5421
upperneck 38.1818 9.28809 -7.06712
head 16.2957 6.71887 -3.89637
rclavicle -4.07509e-015 1.03368e-014
rhumerus -35.1099 8.38518 -85.987
rradius 45.1302
rwrist -3.01351
rhand -12.1603 -4.30165
rfingers 7.12502
rthumb 13.9025 -33.8169
lclavicle -4.07509e-015 1.03368e-014
lhumerus -46.859 12.1285 70.3759
lradius 31.5703
lwrist -18.685
lhand -2.96964 13.8568
lfingers 7.12502
lthumb 22.7431 42.5363
rfemur -8.26204 11.6985 27.7165
rtibia 17.1554
rfoot -15.9956 -5.12981
rtoes 1.47551
lfemur -37.4645 -17.3843 1.10024
ltibia 31.4563
lfoot -2.764 4.30134
ltoes -2.97653
